<svg xmlns="http://www.w3.org/2000/svg" width="223.83" height="70.79" viewBox="0 0 223.83 70.79">
  <g id="Logo" transform="translate(28 -338)">
    <g id="Group_10" data-name="Group 10" transform="translate(-28 338)">
      <g id="Group_8" data-name="Group 8">
        <path id="Path_8" data-name="Path 8" d="M0,54.016l11.335-6.729c3.781,7.47,10.6,11.617,18.438,11.617,6.913,0,11.892-2.582,11.892-7.836,0-5.163-4.888-7.378-13.825-9.861C15.673,37.793,2.948,34.661,2.948,20.371,2.948,7.653,12.908,0,27.565,0c14.009,0,22.31,6.729,27.1,14.009L44.247,21.937a20.326,20.326,0,0,0-16.774-9.678c-6.362,0-9.861,2.765-9.861,6.821,0,5.438,5.071,7.371,14.009,9.861,11.984,3.224,24.7,7,24.7,21.111,0,10.968-8.3,20.738-27.283,20.738C14.29,70.8,5.071,63.792,0,54.016Z" fill="#eee3d0"/>
        <path id="Path_9" data-name="Path 9" d="M82.58,35.4C82.58,11.434,98.253,0,114.751,0c16.407,0,32.08,11.434,32.08,35.4s-15.673,35.4-32.08,35.4C98.253,70.8,82.58,59.363,82.58,35.4Zm49.318,0c0-14.29-6.637-22.952-17.147-22.952C104.15,12.443,97.6,21.1,97.6,35.4s6.546,23.319,17.147,23.319C125.261,58.721,131.9,49.685,131.9,35.4Z" transform="translate(-28.472)" fill="#eee3d0"/>
      </g>
      <g id="Group_9" data-name="Group 9" transform="translate(122.153)">
        <path id="Path_10" data-name="Path 10" d="M186.43,70.185V1.97h15.024V58.018H231.5V70.185Z" transform="translate(-186.43 -0.679)" fill="#eee3d0"/>
        <path id="Path_11" data-name="Path 11" d="M243.55,35.4c0-23.968,15.673-35.4,32.171-35.4,16.407,0,32.08,11.434,32.08,35.4s-15.673,35.4-32.08,35.4C259.216,70.8,243.55,59.363,243.55,35.4Zm49.318,0c0-14.29-6.637-22.952-17.147-22.952-10.6,0-17.147,8.662-17.147,22.952s6.546,23.319,17.147,23.319C286.231,58.721,292.868,49.685,292.868,35.4Z" transform="translate(-206.124)" fill="#eee3d0"/>
      </g>
      <path id="Path_12" data-name="Path 12" d="M179.821,1.95l-11,9.71h20.934V1.95Z" transform="translate(-58.206 -0.672)" fill="#f093bd"/>
      <path id="Path_13" data-name="Path 13" d="M185.62,1.976l15.542-.026.046,56.1.1,12.128H186.079Z" transform="translate(-63.998 -0.672)" fill="#f093bd"/>
    </g>
  </g>
</svg>
