<svg width="30" height="30" viewBox="0 0 30 30" fill="none" xmlns="http://www.w3.org/2000/svg">
<g clip-path="url(#clip0)">
<path d="M29.56 29.61C29.24 29.93 28.71 29.93 28.39 29.61L22.65 23.87L20.59 21.83V21.79L17.17 18.37L16.14 21.69C16 22.13 15.54 22.37 15.1 22.23C14.93 22.18 14.78 22.07 14.67 21.92L12.08 18.27L7.69 18.33C7.23 18.34 6.86001 17.97 6.85001 17.51C6.85001 17.33 6.91 17.15 7.02 17L9.64999 13.49L8.24001 9.34C8.11001 8.9 8.37 8.44 8.81 8.31C8.97 8.26 9.14 8.27 9.3 8.32L13.44 9.74L16.97 7.08C17.34 6.81 17.86 6.88 18.13 7.25C18.24 7.39 18.29 7.57 18.29 7.75L18.21 12.14L21.79 14.68C22.17 14.95 22.26 15.48 21.99 15.86C21.88 16.01 21.73 16.12 21.56 16.18L18.24 17.2L29.57 28.46C29.88 28.77 29.88 29.29 29.56 29.61Z" fill="#EEE3D0"/>
<path d="M6.11 7.34001C6.46 7.64001 6.98 7.6 7.28 7.25C7.55 6.94 7.54 6.48 7.28 6.17L5.23 4.11C4.9 3.78 4.38001 3.78 4.05001 4.11C3.72001 4.44 3.72001 4.96 4.05001 5.29L6.11 7.34001Z" fill="#EEE3D0"/>
<path d="M4.53 13.97C4.53 13.51 4.16 13.14 3.7 13.14H0.800004C0.340004 13.16 -0.0199988 13.54 1.18878e-06 14C0.0200012 14.44 0.360004 14.78 0.800004 14.8H3.7C4.16 14.8 4.53 14.43 4.53 13.97Z" fill="#EEE3D0"/>
<path d="M6.1 20.62L4.05 22.67C3.73 22.99 3.73 23.52 4.05 23.84C4.37 24.16 4.89 24.16 5.22 23.84L7.27 21.78C7.59 21.45 7.57999 20.93 7.24999 20.61C6.92999 20.31 6.42 20.31 6.1 20.62Z" fill="#EEE3D0"/>
<path d="M13.92 23.37C13.46 23.37 13.09 23.74 13.09 24.2V27.1C13.07 27.56 13.43 27.94 13.89 27.96C14.35 27.98 14.73 27.62 14.75 27.16C14.75 27.14 14.75 27.12 14.75 27.1V24.2C14.75 23.74 14.38 23.37 13.92 23.37Z" fill="#EEE3D0"/>
<path d="M23.31 13.98C23.31 14.44 23.68 14.81 24.14 14.81H27.04C27.5 14.83 27.88 14.47 27.9 14.01C27.92 13.55 27.56 13.17 27.1 13.15C27.08 13.15 27.06 13.15 27.04 13.15H24.14C23.68 13.15 23.31 13.53 23.31 13.98Z" fill="#EEE3D0"/>
<path d="M21.73 7.34001L23.78 5.29C24.11 4.96 24.11 4.44 23.78 4.11C23.45 3.78 22.93 3.78 22.6 4.11L20.55 6.17C20.19 6.46 20.14 6.98001 20.43 7.34001C20.72 7.70001 21.24 7.75 21.6 7.46C21.61 7.45 21.62 7.44 21.63 7.43C21.67 7.41 21.71 7.38001 21.73 7.34001Z" fill="#EEE3D0"/>
<path d="M13.93 4.59001C14.38 4.58001 14.75 4.21 14.76 3.76V0.85C14.78 0.39 14.42 0.0100067 13.96 -0.0099933C13.5 -0.0299933 13.12 0.330002 13.1 0.790002C13.1 0.810002 13.1 0.83 13.1 0.85V3.75C13.09 4.22 13.46 4.59001 13.93 4.59001Z" fill="#EEE3D0"/>
</g>
<defs>
<clipPath id="clip0">
<rect width="29.8" height="29.85" fill="white"/>
</clipPath>
</defs>
</svg>
