<svg xmlns="http://www.w3.org/2000/svg" width="187.79" height="87.703" viewBox="0 0 187.79 87.703">
  <g id="Group_19" data-name="Group 19" transform="translate(-112.212 -204.914)">
    <g id="Group_15" data-name="Group 15" transform="translate(186.422 204.914)">
      <g id="Group_13" data-name="Group 13">
        <path id="Path_23" data-name="Path 23" d="M0,27.344l5.738-3.406a10.25,10.25,0,0,0,9.333,5.881c3.5,0,6.02-1.307,6.02-3.967,0-2.614-2.474-3.735-7-4.992-6.159-1.728-12.6-3.313-12.6-10.547C1.493,3.874,6.534,0,13.954,0c7.091,0,11.294,3.406,13.718,7.091L22.4,11.1a10.289,10.289,0,0,0-8.491-4.9c-3.221,0-4.992,1.4-4.992,3.453,0,2.753,2.567,3.731,7.091,4.992,6.066,1.632,12.5,3.546,12.5,10.687,0,5.552-4.2,10.5-13.811,10.5C7.234,35.838,2.567,32.292,0,27.344Z" fill="#eee3d0"/>
        <path id="Path_24" data-name="Path 24" d="M82.58,17.917C82.58,5.788,90.514,0,98.865,0,107.171,0,115.1,5.788,115.1,17.917s-7.934,17.917-16.239,17.917C90.514,35.838,82.58,30.05,82.58,17.917Zm24.965,0c0-7.234-3.36-11.619-8.68-11.619-5.367,0-8.68,4.385-8.68,11.619s3.313,11.8,8.68,11.8C104.185,29.725,107.545,25.151,107.545,17.917Z" transform="translate(-55.19 0)" fill="#eee3d0"/>
      </g>
      <g id="Group_14" data-name="Group 14" transform="translate(61.835)">
        <path id="Path_25" data-name="Path 25" d="M186.43,36.5V1.97h7.605V30.342h15.211V36.5Z" transform="translate(-186.43 -1.317)" fill="#eee3d0"/>
        <path id="Path_26" data-name="Path 26" d="M243.55,17.917C243.55,5.784,251.484,0,259.835,0c8.305,0,16.239,5.788,16.239,17.917s-7.934,17.917-16.239,17.917C251.48,35.838,243.55,30.05,243.55,17.917Zm24.965,0c0-7.234-3.36-11.619-8.68-11.619-5.367,0-8.68,4.385-8.68,11.619s3.313,11.8,8.68,11.8C265.155,29.725,268.515,25.151,268.515,17.917Z" transform="translate(-224.605)" fill="#eee3d0"/>
      </g>
      <path id="Path_27" data-name="Path 27" d="M174.389,1.95,168.82,6.865h10.6V1.95Z" transform="translate(-112.826 -1.303)" fill="#f093bd"/>
      <path id="Path_28" data-name="Path 28" d="M185.62,1.963l7.867-.013.023,28.4.053,6.139h-7.711Z" transform="translate(-124.054 -1.303)" fill="#f093bd"/>
    </g>
    <g id="Group_18" data-name="Group 18" transform="translate(-1)">
      <path id="Path_29" data-name="Path 29" d="M.6,17.576C.6,6.648,6.558,0,15.638,0,22.1,0,26.853,2.995,28.881,10.748l-5.353,1.434C22.01,7.062,19.652,5.353,15.6,5.353s-9.186,2.5-9.186,12.086c0,9.547,4.567,12.829,9.409,12.829,4.524,0,7.615-2.676,7.986-7.7H16.934V17.905H29.349V34.791H24.6V29.853h-.1a9.846,9.846,0,0,1-9.324,5.586C5.4,35.429.6,28.005.6,17.576Z" transform="translate(113.037 205.364)" fill="#eee3d0"/>
      <path id="Path_30" data-name="Path 30" d="M32.97,17.714C32.97,6.223,39.746,0,48.422,0c8.623,0,15.367,6.223,15.367,17.714S57.056,35.429,48.422,35.429C39.746,35.429,32.97,29.205,32.97,17.714Zm25,0c0-8.029-3.823-12.4-9.547-12.4-5.809,0-9.643,4.386-9.643,12.415s3.834,12.5,9.643,12.5C54.146,30.214,57.97,25.743,57.97,17.714Z" transform="translate(112.044 205.364)" fill="#eee3d0"/>
    </g>
    <g id="Group_17" data-name="Group 17" transform="translate(112.212 248.585)">
      <path id="Path_31" data-name="Path 31" d="M2.934,86.16a5.642,5.642,0,0,1-1.24-.847A6.047,6.047,0,0,1,.758,84.27,5.028,5.028,0,0,1,.2,83.256a2.218,2.218,0,0,1-.2-.65,11.855,11.855,0,0,1,.512-2.678c.335-1.26.8-2.746,1.378-4.45s1.231-3.564,1.949-5.552,1.447-4,2.2-6,1.5-3.947,2.225-5.808,1.368-3.514,1.92-4.961.984-2.589,1.329-3.436.5-1.25.5-1.211a20.067,20.067,0,0,0-2.028.512c-.906.266-1.811.532-2.737.788s-1.733.5-2.422.709-1.063.305-1.1.305a.735.735,0,0,1-.679-.532,4.1,4.1,0,0,1-.285-1.24,5.9,5.9,0,0,1,.059-1.437A4.787,4.787,0,0,1,3.1,46.478a3.534,3.534,0,0,1,1.831-1.408A20.963,20.963,0,0,1,8.594,43.86a43.719,43.719,0,0,1,4.814-.876,50.436,50.436,0,0,1,5.3-.394,40.312,40.312,0,0,1,5.3.226,14.3,14.3,0,0,1,4.253,1.043,4.542,4.542,0,0,1,2.363,2.057,3.545,3.545,0,0,1-.305,3.209c-.374.748-.8,1.1-1.27,1.043a6.7,6.7,0,0,1-1.89-.65,28.481,28.481,0,0,0-3.012-1.181,14.924,14.924,0,0,0-4.705-.62c-.148,0-.443.492-.876,1.467s-.955,2.274-1.575,3.888-1.309,3.485-2.057,5.611-1.516,4.322-2.284,6.6S11.1,69.828,10.356,72.1,8.919,76.483,8.3,78.412s-1.142,3.623-1.575,5.07S6,85.973,5.847,86.612c-.413,0-.866-.01-1.349-.03a4.515,4.515,0,0,1-1.634-.423Z" transform="translate(0 -42.58)" fill="#fbcb7f"/>
      <path id="Path_32" data-name="Path 32" d="M24.217,82.982a8.608,8.608,0,0,1-3.1-1.969,11.964,11.964,0,0,1-2.2-3.071,15.636,15.636,0,0,1-1.349-3.888,20.837,20.837,0,0,1-.453-4.42,25.481,25.481,0,0,1,.532-5.69,23.485,23.485,0,0,1,1.8-5.414,20.718,20.718,0,0,1,2.983-4.6,12.566,12.566,0,0,1,4.144-3.18l-1.3-1.3A14.147,14.147,0,0,1,29.5,45.9a10.979,10.979,0,0,1,4.568-1.3,8.8,8.8,0,0,1,3.977.817,9.08,9.08,0,0,1,3.3,2.648,12.975,12.975,0,0,1,2.2,4.45,20.378,20.378,0,0,1,.679,6.281,31.83,31.83,0,0,1-1.408,8,34.5,34.5,0,0,1-3.268,7.491,25.788,25.788,0,0,1-4.676,5.887,12.3,12.3,0,0,1-5.582,3.13,8.5,8.5,0,0,1-5.02-.285Zm6.989-27.4a10.046,10.046,0,0,0-3.406,3.3,19.168,19.168,0,0,0-2.254,4.676,21.618,21.618,0,0,0-1.014,4.991,12.761,12.761,0,0,0,.285,4.282,4.366,4.366,0,0,0,1.6,2.589,2.771,2.771,0,0,0,2.934-.108A9.785,9.785,0,0,0,32.4,72.606a22.875,22.875,0,0,0,2.737-4.479,29.767,29.767,0,0,0,1.949-5.552,24.574,24.574,0,0,0,.728-5.916,10.142,10.142,0,0,0-.709-4.341,3.941,3.941,0,0,0-1.723-1.89,3.2,3.2,0,0,0-2.116-.226,10.234,10.234,0,0,0-1.92.62,4.094,4.094,0,0,0-1.1.65c-.187.187-.059.148.394-.108.226.335.453.709.679,1.1a4.6,4.6,0,0,1,.482,1.181,2.623,2.623,0,0,1,.03,1.1,1.2,1.2,0,0,1-.62.788v.049Z" transform="translate(-0.267 -42.611)" fill="#fbcb7f"/>
      <path id="Path_33" data-name="Path 33" d="M50.579,53.383a22.706,22.706,0,0,1,6.763-7.157,12.318,12.318,0,0,1,6.6-2.146,7.378,7.378,0,0,1,2.9.561,7.206,7.206,0,0,1,2.343,1.6,7.608,7.608,0,0,1,1.6,2.54,9.933,9.933,0,0,1,.65,3.357,15.349,15.349,0,0,1-.305,3.465,22.283,22.283,0,0,1-1.211,3.918,9.462,9.462,0,0,1-1.664,2.786,4.559,4.559,0,0,1-1.742,1.24,2.873,2.873,0,0,1-1.693.108,5.09,5.09,0,0,1-1.437-.561,4.676,4.676,0,0,1-.984-.758c-.246-.266-.364-.433-.364-.512,0-.148.187-.433.561-.847a7.655,7.655,0,0,0,1.329-2.146,24.727,24.727,0,0,0,1.014-2.786,23.747,23.747,0,0,0,.65-2.707,12.416,12.416,0,0,0,.226-1.772c0-.335-.2-.5-.591-.482a3.927,3.927,0,0,0-1.467.453,13.733,13.733,0,0,0-1.8,1.073,11.871,11.871,0,0,0-1.6,1.329,24.624,24.624,0,0,0-3.692,4.705,31.051,31.051,0,0,0-2.54,5.217A27.646,27.646,0,0,0,52.716,69a19.193,19.193,0,0,0-.305,4.4,7.677,7.677,0,0,0,.709,3.071,1.82,1.82,0,0,0,1.664,1.152,4.737,4.737,0,0,0,2.392-.591A5.546,5.546,0,0,0,58.917,75.5a7.918,7.918,0,0,0,1.132-2.116,11.584,11.584,0,0,0,.591-2.313,15.4,15.4,0,0,0-2.2.03c-.561.059-.994.108-1.3.138a2.859,2.859,0,0,1-.679.03.405.405,0,0,1-.335-.256A2.014,2.014,0,0,1,56.023,70a5.93,5.93,0,0,1,.285-1.378,7.787,7.787,0,0,1,.532-1.3,1.494,1.494,0,0,1,.591-.709A5.933,5.933,0,0,1,58.5,66.5q.9-.059,1.949-.089c.7-.02,1.329-.03,1.92-.03h1.043c.935,0,1.664.01,2.166.03a2.974,2.974,0,0,1,1.1.2.6.6,0,0,1,.364.512c.02.226.03.532.03.906a14.954,14.954,0,0,1-.847,3.947,25.649,25.649,0,0,1-2.2,4.765,22.634,22.634,0,0,1-3.357,4.371,10.352,10.352,0,0,1-4.312,2.707,7.433,7.433,0,0,1-4.627,0,8.315,8.315,0,0,1-5.1-4.253,17.014,17.014,0,0,1-1.772-7.58,29.5,29.5,0,0,1,1.349-9.273,36.465,36.465,0,0,1,4.341-9.332h.02Z" transform="translate(-0.7 -42.603)" fill="#fbcb7f"/>
      <path id="Path_34" data-name="Path 34" d="M76.057,47.99a4.5,4.5,0,0,1,1.831-.788c1.034-.305,2.294-.591,3.78-.876s3.091-.512,4.824-.679a42.115,42.115,0,0,1,5.07-.2,20.892,20.892,0,0,1,3.751.423,8.379,8.379,0,0,1,2.845,1.1,3.488,3.488,0,0,1,1.5,1.949,4.633,4.633,0,0,1-.305,2.963c-.226.64-.482.994-.758,1.073a2.03,2.03,0,0,1-1.152-.138c-.492-.167-1.122-.374-1.92-.62a10.692,10.692,0,0,0-3.1-.364c-1.762,0-3.111.01-4.026.03a5.5,5.5,0,0,0-2.116.364,2.421,2.421,0,0,0-1.152,1.152c-.285.541-.689,1.349-1.211,2.392-.532,1.093-.935,1.959-1.24,2.589s-.5,1.112-.62,1.408a3.242,3.242,0,0,0-.226.679c1.162-.079,2.107-.138,2.815-.2s1.349-.1,1.92-.138,1.142-.079,1.742-.108,1.368-.089,2.313-.167l.847.847a2.532,2.532,0,0,1,.847,1.8,3.786,3.786,0,0,1-.847,2.087,7.715,7.715,0,0,1-.591.788,1.818,1.818,0,0,1-.817.453,10.257,10.257,0,0,1-1.546.285c-.66.079-1.6.167-2.845.285-.64.079-1.339.158-2.087.256s-1.457.207-2.116.335-1.221.266-1.693.394a2.75,2.75,0,0,0-.817.305,2.707,2.707,0,0,0-.335,1.1c-.108.62-.217,1.29-.305,2s-.177,1.368-.256,1.969-.108.925-.108.955a38.188,38.188,0,0,1,6-.758,17.768,17.768,0,0,1,4.2.285,6.343,6.343,0,0,1,2.619,1.1,3.842,3.842,0,0,1,1.27,1.634,4.045,4.045,0,0,1-.089,2.934,8.851,8.851,0,0,1-1.772,2.874c-.305-.148-.827-.4-1.575-.758a10.706,10.706,0,0,0-3.18-.788,25.119,25.119,0,0,0-5.158.03A34.185,34.185,0,0,0,72.779,82c-.906.305-1.575.532-2.028.709a8.943,8.943,0,0,1-1.014.335.91.91,0,0,1-.5.03,3.592,3.592,0,0,1-.512-.226A2.633,2.633,0,0,1,67.512,81.3a6.509,6.509,0,0,1-.482-2.451c0-.827.118-1.339.364-1.546a4.571,4.571,0,0,1,1.329-.65,5.457,5.457,0,0,0,1.152-.532,1.24,1.24,0,0,0,.335-.847c.059-.433.118-1.093.2-1.969s.285-2.166.62-3.859q.118-.5.03-.62c-.059-.079-.3-.108-.709-.108H69.56a22.838,22.838,0,0,1,.2-3.465,4.915,4.915,0,0,1,.5-1.664A1.177,1.177,0,0,1,71.017,63a5.952,5.952,0,0,0,.925-.256,2.729,2.729,0,0,0,1.014-.709A5.385,5.385,0,0,0,74,60.147c.266-.679.551-1.378.876-2.116s.64-1.408.955-2.028.581-1.142.788-1.575.325-.689.364-.758c-.305.079-.571.138-.817.2a.814.814,0,0,1-.62-.059.972.972,0,0,1-.394-.62,5.269,5.269,0,0,1-.138-1.437,9.717,9.717,0,0,1,.256-2.087,3.869,3.869,0,0,1,.876-1.8Z" transform="translate(-1.045 -42.625)" fill="#fbcb7f"/>
      <path id="Path_35" data-name="Path 35" d="M95.9,86.16a5.642,5.642,0,0,1-1.24-.847,6.047,6.047,0,0,1-.935-1.043,5.307,5.307,0,0,1-.561-1.014,2.218,2.218,0,0,1-.2-.65,11.855,11.855,0,0,1,.512-2.678c.335-1.26.8-2.746,1.378-4.45s1.231-3.564,1.949-5.552,1.447-4,2.2-6,1.5-3.947,2.225-5.808,1.368-3.514,1.92-4.961.984-2.589,1.329-3.436.5-1.25.5-1.211a20.067,20.067,0,0,0-2.028.512c-.906.266-1.811.532-2.737.788s-1.733.5-2.422.709-1.063.305-1.1.305a.735.735,0,0,1-.679-.532,4.1,4.1,0,0,1-.285-1.24,5.905,5.905,0,0,1,.059-1.437,4.787,4.787,0,0,1,.285-1.132A3.534,3.534,0,0,1,97.9,45.071a20.964,20.964,0,0,1,3.662-1.211,43.719,43.719,0,0,1,4.814-.876,50.436,50.436,0,0,1,5.3-.394,40.312,40.312,0,0,1,5.3.226,14.3,14.3,0,0,1,4.253,1.043,4.542,4.542,0,0,1,2.363,2.057,3.545,3.545,0,0,1-.305,3.209c-.374.748-.8,1.1-1.27,1.043a6.7,6.7,0,0,1-1.89-.65,28.482,28.482,0,0,0-3.012-1.181,14.924,14.924,0,0,0-4.705-.62c-.148,0-.443.492-.876,1.467s-.955,2.274-1.575,3.888-1.309,3.485-2.057,5.611-1.516,4.322-2.284,6.6-1.536,4.548-2.284,6.822-1.437,4.381-2.057,6.31-1.142,3.623-1.575,5.07-.728,2.491-.876,3.13c-.413,0-.866-.01-1.349-.03a4.515,4.515,0,0,1-1.634-.423Z" transform="translate(-1.45 -42.58)" fill="#fbcb7f"/>
      <path id="Path_36" data-name="Path 36" d="M135.166,44.48a4.51,4.51,0,0,1,2.766.876,2.066,2.066,0,0,1,.847,1.378,12.347,12.347,0,0,1-.532,2.54q-.532,1.92-1.437,4.617c-.6,1.8-1.28,3.8-2.028,5.975s-1.536,4.371-2.343,6.566-1.6,4.331-2.392,6.4-1.516,3.9-2.166,5.493-1.2,2.884-1.634,3.859-.709,1.467-.817,1.467a1.961,1.961,0,0,1-.62-.2,5.779,5.779,0,0,1-.906-.482,8.684,8.684,0,0,1-1.014-.758c-.374-.315-.728-.65-1.073-.984s-.62-.65-.847-.925a1.248,1.248,0,0,1-.335-.65,6.769,6.769,0,0,1,.226-.876c.148-.512.335-1.132.561-1.89s.482-1.546.758-2.392.532-1.644.758-2.392.413-1.4.561-1.949a6.446,6.446,0,0,0,.226-.984,3.918,3.918,0,0,0-1.1-.089q-1.107-.03-2.422-.03t-2.451.059a6.851,6.851,0,0,0-1.181.108q-.9,2.481-1.634,4.509c-.413,1.162-.827,2.254-1.24,3.268s-.66,1.595-.728,1.742c-.226.335-.689.423-1.378.256a4.637,4.637,0,0,1-2.028-1.152,6.382,6.382,0,0,1-1.575-2.313,4.586,4.586,0,0,1-.03-3.209,12.275,12.275,0,0,0,.394-1.349c.039-.226,0-.335-.108-.335a1.74,1.74,0,0,0-.532.138,2.534,2.534,0,0,1-.935.138.7.7,0,0,1-.728-.591,9.823,9.823,0,0,1-.167-2.225,7.552,7.552,0,0,1,.138-1.634,1.5,1.5,0,0,1,.62-.906,3.755,3.755,0,0,1,1.408-.532q.93-.192,2.569-.591c.148-.453.413-1.191.788-2.225s.807-2.185,1.3-3.465,1-2.589,1.546-3.947,1.083-2.589,1.6-3.721a28.665,28.665,0,0,1,1.437-2.766c.433-.709.778-1.073,1.043-1.073a4.5,4.5,0,0,1,3.1,1.3,1.954,1.954,0,0,1,.482.906,4.5,4.5,0,0,1,.118,1.24,8.857,8.857,0,0,1-.167,1.349c-.1.453-.177.827-.256,1.132a48.358,48.358,0,0,1-1.437,4.843c-.473,1.28-.827,2.294-1.073,3.042a4.219,4.219,0,0,0-.305,1.575c.039.305.305.482.817.532a11.084,11.084,0,0,0,2.313-.089c1.034-.108,2.431-.226,4.2-.335,1.053-3.16,1.959-5.808,2.737-7.944s1.447-3.888,2.028-5.237a28.435,28.435,0,0,1,1.5-3.071,6.2,6.2,0,0,1,1.1-1.467,1.536,1.536,0,0,1,.876-.453c.266-.02.522-.03.788-.03Z" transform="translate(-1.651 -42.61)" fill="#fbcb7f"/>
      <path id="Path_37" data-name="Path 37" d="M142.127,47.99a4.5,4.5,0,0,1,1.831-.788c1.034-.305,2.294-.591,3.78-.876s3.091-.512,4.824-.679a42.114,42.114,0,0,1,5.07-.2,20.893,20.893,0,0,1,3.751.423,8.379,8.379,0,0,1,2.845,1.1,3.488,3.488,0,0,1,1.5,1.949,4.633,4.633,0,0,1-.305,2.963c-.226.64-.482.994-.758,1.073a2.03,2.03,0,0,1-1.152-.138c-.492-.167-1.122-.374-1.92-.62a10.692,10.692,0,0,0-3.1-.364c-1.762,0-3.111.01-4.026.03a5.5,5.5,0,0,0-2.116.364,2.421,2.421,0,0,0-1.152,1.152c-.285.541-.689,1.349-1.211,2.392-.532,1.093-.935,1.959-1.24,2.589s-.5,1.112-.62,1.408a3.242,3.242,0,0,0-.226.679c1.162-.079,2.107-.138,2.815-.2s1.349-.1,1.92-.138,1.142-.079,1.742-.108,1.368-.089,2.313-.167l.847.847a2.532,2.532,0,0,1,.847,1.8,3.785,3.785,0,0,1-.847,2.087,7.711,7.711,0,0,1-.591.788,1.818,1.818,0,0,1-.817.453,10.257,10.257,0,0,1-1.546.285c-.66.079-1.6.167-2.845.285-.64.079-1.339.158-2.087.256s-1.457.207-2.116.335-1.221.266-1.693.394a2.751,2.751,0,0,0-.817.305,2.708,2.708,0,0,0-.335,1.1c-.108.62-.217,1.29-.305,2s-.177,1.368-.256,1.969-.108.925-.108.955a38.188,38.188,0,0,1,6-.758,17.768,17.768,0,0,1,4.2.285,6.343,6.343,0,0,1,2.619,1.1,3.842,3.842,0,0,1,1.27,1.634,4.045,4.045,0,0,1-.089,2.934,8.851,8.851,0,0,1-1.772,2.874c-.305-.148-.827-.4-1.575-.758a10.706,10.706,0,0,0-3.18-.788,25.119,25.119,0,0,0-5.158.03A34.185,34.185,0,0,0,138.849,82c-.906.305-1.575.532-2.028.709a8.942,8.942,0,0,1-1.014.335.91.91,0,0,1-.5.03,3.594,3.594,0,0,1-.512-.226,2.633,2.633,0,0,1-1.211-1.546,6.509,6.509,0,0,1-.482-2.451c0-.827.118-1.339.364-1.546a4.57,4.57,0,0,1,1.329-.65,5.458,5.458,0,0,0,1.152-.532,1.24,1.24,0,0,0,.335-.847c.059-.433.118-1.093.2-1.969s.285-2.166.62-3.859q.118-.5.03-.62c-.059-.079-.3-.108-.709-.108h-.788a22.842,22.842,0,0,1,.2-3.465,4.916,4.916,0,0,1,.5-1.664,1.177,1.177,0,0,1,.758-.591,5.953,5.953,0,0,0,.925-.256,2.729,2.729,0,0,0,1.014-.709,5.385,5.385,0,0,0,1.043-1.89c.266-.679.551-1.378.876-2.116s.64-1.408.955-2.028.581-1.142.788-1.575.325-.689.364-.758c-.305.079-.571.138-.817.2a.814.814,0,0,1-.62-.059.972.972,0,0,1-.394-.62,5.269,5.269,0,0,1-.138-1.437,9.718,9.718,0,0,1,.256-2.087,3.869,3.869,0,0,1,.876-1.8Z" transform="translate(-2.076 -42.625)" fill="#fbcb7f"/>
      <path id="Path_38" data-name="Path 38" d="M163.215,82.925a12.476,12.476,0,0,1-2.934-1.8,3.562,3.562,0,0,1-1.152-2.481,11.769,11.769,0,0,1,.591-4.144c.492-1.713,1.24-4.007,2.254-6.9q.34-.9,1.152-3.012t1.8-4.6q.989-2.481,1.969-4.824c.66-1.555,1.211-2.786,1.664-3.692-.788.187-1.4.325-1.831.423a7.306,7.306,0,0,1-1.014.167.81.81,0,0,1-.532-.089,3.9,3.9,0,0,1-.453-.394,4.421,4.421,0,0,1-.906-1.211,5.984,5.984,0,0,1-.561-1.526,3.217,3.217,0,0,1,0-1.437,1.331,1.331,0,0,1,.847-.955,19.993,19.993,0,0,1,4.026-1.24,25.541,25.541,0,0,1,4.144-.453,24.477,24.477,0,0,1,6.93.876,20.437,20.437,0,0,1,5.916,2.619A13.455,13.455,0,0,1,189.1,52.2a7.079,7.079,0,0,1,1.1,4.843,10.659,10.659,0,0,1-2.934,5.611,26.992,26.992,0,0,1-8.171,5.66c-1.28.64-2.284,1.122-3.012,1.437s-1.29.571-1.664.758a6.4,6.4,0,0,1-.906.335,38.021,38.021,0,0,1,5.385,2.559,21.55,21.55,0,0,1,3.554,2.559,8.687,8.687,0,0,1,1.861,2.284,2.258,2.258,0,0,1,.305,1.723,2.6,2.6,0,0,1-.65,1.132,5.883,5.883,0,0,1-1.1.906,5.819,5.819,0,0,1-1.27.62,3.648,3.648,0,0,1-1.152.226,10.458,10.458,0,0,1-1.043-.817q-.989-.812-2.451-1.92c-.975-.728-2.048-1.467-3.209-2.2a18.644,18.644,0,0,0-3.327-1.693,5.466,5.466,0,0,0-2.766-.394,2.006,2.006,0,0,0-1.575,1.723,30.941,30.941,0,0,0-.728,3.465,14.409,14.409,0,0,1-.335,1.861c-.108.394-.3.581-.532.561a4.565,4.565,0,0,1-1.319-.482Zm10.76-28.292a7.191,7.191,0,0,1-.364.847c-.246.532-.532,1.171-.847,1.949s-.66,1.595-1.014,2.481-.689,1.7-.984,2.451-.541,1.378-.728,1.89-.246.758-.167.758a5.1,5.1,0,0,0,.955-.2q.738-.192,2.363-.65a24.15,24.15,0,0,0,5.916-2.54,10.645,10.645,0,0,0,3.662-3.327,3.18,3.18,0,0,0,.167-3.386c-.6-1.093-2.146-2.008-4.627-2.766-.748-.226-1.329-.384-1.723-.482a1.363,1.363,0,0,0-.984.059,1.706,1.706,0,0,0-.709.876c-.207.453-.5,1.112-.876,1.969Z" transform="translate(-2.481 -42.614)" fill="#fbcb7f"/>
    </g>
  </g>
</svg>
